<svg width="171" height="168" viewBox="0 0 171 168" fill="none" xmlns="http://www.w3.org/2000/svg">
<mask id="path-1-inside-1" fill="white">
<path fill-rule="evenodd" clip-rule="evenodd" d="M85.1053 0C38.1029 0 0 37.6081 0 84C0 130.392 38.1029 168 85.1053 168C132.108 168 170.211 130.392 170.211 84C170.211 37.6081 132.108 0 85.1053 0ZM141.798 116.198L52.4837 28.0436C62.0837 22.5791 73.2212 19.4526 85.1053 19.4526C121.223 19.4526 150.502 48.3515 150.502 84C150.502 95.7298 147.334 106.723 141.798 116.198ZM19.7086 84C19.7086 67.1292 26.263 51.7739 37.0011 40.2723L129.408 131.479C117.755 142.078 102.198 148.547 85.1053 148.547C48.9877 148.547 19.7086 119.649 19.7086 84Z"/>
</mask>
<path d="M52.4837 28.0436L51.4943 26.3055L49.1992 27.6119L51.0788 29.4671L52.4837 28.0436ZM141.798 116.198L140.393 117.621L142.226 119.43L143.525 117.207L141.798 116.198ZM37.0011 40.2723L38.406 38.8489L36.9425 37.4043L35.5392 38.9074L37.0011 40.2723ZM129.408 131.479L130.754 132.959L132.316 131.539L130.813 130.056L129.408 131.479ZM2 84C2 38.7372 39.1828 2 85.1053 2V-2C37.0231 -2 -2 36.4789 -2 84H2ZM85.1053 166C39.1828 166 2 129.263 2 84H-2C-2 131.521 37.0231 170 85.1053 170V166ZM168.211 84C168.211 129.263 131.028 166 85.1053 166V170C133.187 170 172.211 131.521 172.211 84H168.211ZM85.1053 2C131.028 2 168.211 38.7372 168.211 84H172.211C172.211 36.4789 133.187 -2 85.1053 -2V2ZM51.0788 29.4671L140.393 117.621L143.203 114.774L53.8886 26.6202L51.0788 29.4671ZM85.1053 17.4526C72.8663 17.4526 61.3888 20.6734 51.4943 26.3055L53.4731 29.7818C62.7785 24.4849 73.576 21.4526 85.1053 21.4526V17.4526ZM152.502 84C152.502 47.2223 122.303 17.4526 85.1053 17.4526V21.4526C120.143 21.4526 148.502 49.4806 148.502 84H152.502ZM143.525 117.207C149.235 107.435 152.502 96.0949 152.502 84H148.502C148.502 95.3646 145.434 106.011 140.071 115.189L143.525 117.207ZM35.5392 38.9074C24.4713 50.7623 17.7086 66.5996 17.7086 84H21.7086C21.7086 67.6588 28.0547 52.7855 38.463 41.6371L35.5392 38.9074ZM130.813 130.056L38.406 38.8489L35.5962 41.6957L128.003 132.903L130.813 130.056ZM85.1053 150.547C102.712 150.547 118.745 143.882 130.754 132.959L128.063 130C116.766 140.274 101.684 146.547 85.1053 146.547V150.547ZM17.7086 84C17.7086 120.778 47.9078 150.547 85.1053 150.547V146.547C50.0675 146.547 21.7086 118.519 21.7086 84H17.7086Z" fill="url(#paint0_linear)" mask="url(#path-1-inside-1)"/>
<defs>
<linearGradient id="paint0_linear" x1="120.043" y1="152.084" x2="54.2922" y2="7.30512" gradientUnits="userSpaceOnUse">
<stop stop-color="#E50004"/>
<stop offset="1" stop-color="#F35A5D"/>
</linearGradient>
</defs>
</svg>
