<svg width="24" height="24" viewBox="0 0 24 24" fill="none" xmlns="http://www.w3.org/2000/svg">
<path fill-rule="evenodd" clip-rule="evenodd" d="M12 23C18.0751 23 23 18.0751 23 12C23 5.92487 18.0751 1 12 1C5.92487 1 1 5.92487 1 12C1 18.0751 5.92487 23 12 23ZM12 24C18.6274 24 24 18.6274 24 12C24 5.37258 18.6274 0 12 0C5.37258 0 0 5.37258 0 12C0 18.6274 5.37258 24 12 24Z" fill="white"/>
<path d="M13.0361 5.33325L12.8595 14.1494H11.0942L10.8526 5.33325H13.0361ZM12.0047 17.9999C11.6331 17.9999 11.3172 17.8896 11.057 17.6689C10.7968 17.4424 10.6667 17.1694 10.6667 16.85C10.6667 16.5189 10.7968 16.2373 11.057 16.005C11.3172 15.7727 11.6331 15.6565 12.0047 15.6565C12.364 15.6565 12.6737 15.7727 12.9339 16.005C13.2002 16.2373 13.3334 16.5189 13.3334 16.85C13.3334 17.1694 13.2002 17.4424 12.9339 17.6689C12.6737 17.8896 12.364 17.9999 12.0047 17.9999Z" fill="white"/>
</svg>
