<svg width="16" height="16" viewBox="0 0 16 16" fill="none" xmlns="http://www.w3.org/2000/svg">
<path fill-rule="evenodd" clip-rule="evenodd" d="M8 15.3333C12.0501 15.3333 15.3333 12.0501 15.3333 8C15.3333 3.94991 12.0501 0.666667 8 0.666667C3.94991 0.666667 0.666667 3.94991 0.666667 8C0.666667 12.0501 3.94991 15.3333 8 15.3333ZM8 16C12.4183 16 16 12.4183 16 8C16 3.58172 12.4183 0 8 0C3.58172 0 0 3.58172 0 8C0 12.4183 3.58172 16 8 16Z" fill="url(#paint0_linear)"/>
<path d="M8.69064 3.5555L8.57295 9.43292H7.39602L7.23497 3.5555H8.69064ZM8.00307 11.9999C7.7553 11.9999 7.54469 11.9264 7.37125 11.7792C7.1978 11.6282 7.11108 11.4463 7.11108 11.2333C7.11108 11.0126 7.1978 10.8248 7.37125 10.67C7.54469 10.5151 7.7553 10.4377 8.00307 10.4377C8.24258 10.4377 8.44906 10.5151 8.6225 10.67C8.80008 10.8248 8.88886 11.0126 8.88886 11.2333C8.88886 11.4463 8.80008 11.6282 8.6225 11.7792C8.44906 11.9264 8.24258 11.9999 8.00307 11.9999Z" fill="url(#paint1_linear)"/>
<defs>
<linearGradient id="paint0_linear" x1="8" y1="0" x2="8" y2="16" gradientUnits="userSpaceOnUse">
<stop stop-color="#E50004"/>
<stop offset="1" stop-color="#FF4D50"/>
</linearGradient>
<linearGradient id="paint1_linear" x1="7.99997" y1="3.5555" x2="7.99997" y2="11.9999" gradientUnits="userSpaceOnUse">
<stop stop-color="#E50004"/>
<stop offset="1" stop-color="#FF4D50"/>
</linearGradient>
</defs>
</svg>
