<svg width="103" height="97" viewBox="0 0 103 97" fill="none" xmlns="http://www.w3.org/2000/svg">
<path d="M7.36676 62.3718C13.2995 81.4216 30.8081 95.2671 51.5002 95.2671C72.1923 95.2671 89.7009 81.4216 95.6336 62.3718" stroke="#E50004" stroke-width="2" stroke-miterlimit="10" stroke-linecap="round" stroke-linejoin="round"/>
<path d="M95.6819 33.895C89.7492 14.8452 72.1923 0.999756 51.5002 0.999756C30.8081 0.999756 13.2995 14.8452 7.36676 33.895" stroke="#E50004" stroke-width="2" stroke-miterlimit="10" stroke-linecap="round" stroke-linejoin="round"/>
<path d="M1 23.2407L7.07739 34.484L19.1357 27.7086" stroke="#E50004" stroke-width="2" stroke-miterlimit="10" stroke-linecap="round" stroke-linejoin="round"/>
<path d="M102 72.7801L95.9229 61.5367L83.9128 68.3122" stroke="#E50004" stroke-width="2" stroke-miterlimit="10" stroke-linecap="round" stroke-linejoin="round"/>
<path d="M7.36676 62.3718C13.2995 81.4216 30.8081 95.2671 51.5002 95.2671C72.1923 95.2671 89.7009 81.4216 95.6336 62.3718" stroke="#E50004" stroke-width="2" stroke-miterlimit="10" stroke-linecap="round" stroke-linejoin="round"/>
<path d="M95.6819 33.895C89.7492 14.8452 72.1923 0.999756 51.5002 0.999756C30.8081 0.999756 13.2995 14.8452 7.36676 33.895" stroke="#E50004" stroke-width="2" stroke-miterlimit="10" stroke-linecap="round" stroke-linejoin="round"/>
<path d="M1 23.2407L7.07739 34.484L19.1357 27.7086" stroke="#E50004" stroke-width="2" stroke-miterlimit="10" stroke-linecap="round" stroke-linejoin="round"/>
<path d="M102 72.7801L95.9229 61.5367L83.9128 68.3122" stroke="#E50004" stroke-width="2" stroke-miterlimit="10" stroke-linecap="round" stroke-linejoin="round"/>
</svg>
