<svg width="24" height="38" viewBox="0 0 24 38" fill="none" xmlns="http://www.w3.org/2000/svg">
<path fill-rule="evenodd" clip-rule="evenodd" d="M0 0H24V2.52547H22.2603C22.1149 5.56563 21.141 15.9139 14.6156 18.1089L14.5998 18.1142C14.5252 18.1391 14.4498 18.163 14.3737 18.1858V18.8546C14.4498 18.8774 14.5252 18.9012 14.5998 18.9262L14.6156 18.9315C21.1409 21.1264 22.1149 31.4745 22.2602 34.5148H24V37.0402H0V34.5148H1.73986C1.88524 31.4745 2.85924 21.1264 9.38445 18.9315L9.4003 18.9261C9.47495 18.9012 9.55033 18.8774 9.62643 18.8546V18.1858C9.55033 18.163 9.47495 18.1391 9.4003 18.1142L9.38445 18.1089C2.85916 15.9139 1.88523 5.56563 1.73987 2.52547H0V0ZM21.4681 34.5148H2.53198C2.54938 34.1605 2.57822 33.7078 2.62601 33.1812C2.74717 31.8462 2.98904 30.0493 3.46993 28.1873C4.45165 24.3859 6.33684 20.6569 9.85538 19.6042L10.4176 19.436V17.6044L9.85538 17.4362C6.33684 16.3834 4.45166 12.6545 3.46994 8.85308C2.98905 6.99102 2.74718 5.19413 2.62603 3.85918C2.57823 3.33254 2.54938 2.8797 2.53198 2.52547H21.4682C21.4508 2.8797 21.4219 3.33253 21.3741 3.85916C21.253 5.19411 21.0111 6.99099 20.5302 8.85304C19.5485 12.6544 17.6633 16.3834 14.1447 17.4362L13.5825 17.6044V19.436L14.1447 19.6042C17.6633 20.657 19.5485 24.3859 20.5302 28.1873C21.0111 30.0494 21.2529 31.8462 21.3741 33.1812C21.4219 33.7078 21.4507 34.1605 21.4681 34.5148ZM6.00016 12.6274C6.90356 14.7709 8.64465 16.8365 12.0002 16.8365C15.3557 16.8365 17.0967 14.7709 18.0002 12.6274H6.00016ZM12 24.4129C16.8718 24.4129 19.3306 29.0213 20.5715 33.673H3.42861C4.66953 29.0214 7.12828 24.413 12 24.4129Z" fill="#E50004"/>
</svg>
