<svg width="24" height="24" viewBox="0 0 24 24" fill="none" xmlns="http://www.w3.org/2000/svg">
<path fill-rule="evenodd" clip-rule="evenodd" d="M12 24C18.6274 24 24 18.6274 24 12C24 5.37258 18.6274 0 12 0C5.37258 0 0 5.37258 0 12C0 18.6274 5.37258 24 12 24Z" fill="white"/>
<path d="M12.0938 8.32031C11.7969 8.32031 11.5417 8.22396 11.3281 8.03125C11.1198 7.83854 11.0156 7.59375 11.0156 7.29688C11.0156 7 11.1198 6.7526 11.3281 6.55469C11.5417 6.35677 11.7969 6.25781 12.0938 6.25781C12.401 6.25781 12.6615 6.35677 12.875 6.55469C13.0885 6.7526 13.1953 7 13.1953 7.29688C13.1953 7.57812 13.0885 7.82031 12.875 8.02344C12.6615 8.22135 12.401 8.32031 12.0938 8.32031ZM12.9922 18H11.1797V10H12.9922V18Z" fill="#666666"/>
</svg>
