<svg width="18" height="18" viewBox="0 0 18 18" fill="none" xmlns="http://www.w3.org/2000/svg">
<path fill-rule="evenodd" clip-rule="evenodd" d="M5.77019 4.15357C5.91824 3.79845 6 3.40877 6 3C6 1.34315 4.65685 0 3 0C1.34315 0 0 1.34315 0 3C0 4.65685 1.34315 6 3 6C3.99061 6 4.86909 5.51987 5.4154 4.77961L12.1768 7.98288C12.0624 8.30048 12 8.64296 12 9C12 9.35704 12.0624 9.69952 12.1768 10.0171L5.4154 13.2204C4.86909 12.4801 3.99061 12 3 12C1.34315 12 0 13.3431 0 15C0 16.6569 1.34315 18 3 18C4.65685 18 6 16.6569 6 15C6 14.5912 5.91824 14.2016 5.77019 13.8464L12.4996 10.6583C13.037 11.467 13.9563 12 15 12C16.6569 12 18 10.6569 18 9C18 7.34315 16.6569 6 15 6C13.9563 6 13.037 6.53301 12.4996 7.34167L5.77019 4.15357Z" fill="#C4C4C4"/>
</svg>
