<svg width="75" height="110" viewBox="0 0 75 110" fill="none" xmlns="http://www.w3.org/2000/svg">
<path fill-rule="evenodd" clip-rule="evenodd" d="M36.4371 105.487L54.3627 101.21C56.0158 100.816 57.1923 99.4827 57.4477 97.9061L60.1128 82.4294C60.1828 81.9286 60.1684 81.4268 60.0448 80.909L59.0945 76.9255C58.5718 74.7346 56.3516 73.3697 54.1607 73.8924L41.5929 76.8907L41.3136 67.3371L41.2213 66.6855C41.0264 65.8689 40.5073 65.1928 39.8412 64.7833L37.2311 63.1957L27.2369 79.4525C26.691 80.3406 26.4904 81.4409 26.7517 82.5364L31.5033 102.454C32.026 104.645 34.2462 106.009 36.4371 105.487ZM30.7351 81.5861L37.3169 70.8798L37.1854 82.1523L55.1109 77.8758L56.0613 81.8593L53.4122 97.2269L35.4867 101.503L30.7351 81.5861ZM20.5032 109.288L28.4701 107.387L22.7682 83.4867L14.8013 85.3874L20.5032 109.288Z" fill="white"/>
<path d="M10.7279 50.7516L15.6108 54.4757L21.6208 53.2144L19.5878 59.0092L22.6446 64.3353L16.5053 64.1925L12.3844 68.7455L10.6231 62.8625L5.01943 60.3503L10.0702 56.8573L10.7279 50.7516Z" fill="white"/>
<path d="M62.6977 44.436L65.2841 51.4512L72.284 54.0789L66.4114 58.7066L66.0753 66.1759L59.8594 62.0207L52.6518 64.0092L54.6828 56.8135L50.5644 50.5732L58.0355 50.2812L62.6977 44.436Z" fill="white"/>
<path d="M59.0635 17.2839L60.6819 22.8511L65.9531 25.265L61.1586 28.5245L60.4917 34.2837L55.9101 30.7311L50.2267 31.8765L52.1897 26.4213L49.344 21.3701L55.1388 21.5512L59.0635 17.2839Z" fill="white"/>
<path d="M26.5838 4.17978L32.297 8.81319L39.5378 7.51784L36.8966 14.3831L40.3662 20.8693L33.0207 20.4789L27.9241 25.7829L26.0255 18.6764L19.4062 15.4682L25.5783 11.4666L26.5838 4.17978Z" fill="white"/>
<path d="M16.1677 24.8772L15.4567 30.0367L18.8968 33.9471L13.7702 34.8654L11.1142 39.3455L8.65672 34.7535L3.5751 33.612L7.18296 29.8557L6.69831 24.6701L11.3856 26.9406L16.1677 24.8772Z" fill="white"/>
<path d="M36.4086 53.3129L34.6664 52.4132C28.4832 49.2353 24.4018 47.1402 23.4235 43.489C22.6263 40.5139 24.3375 37.55 27.3126 36.7529C28.9933 36.3025 30.816 36.6527 32.2002 37.607C32.9218 36.0885 34.3252 34.8739 36.0059 34.4235C38.981 33.6264 41.9449 35.3376 42.742 38.3126C43.7204 41.9638 41.2334 45.8188 37.4701 51.6723L36.4086 53.3129Z" fill="white"/>
</svg>
