<svg width="24" height="20" viewBox="0 0 24 20" fill="none" xmlns="http://www.w3.org/2000/svg">
<path d="M12.777 6L12.6446 13.6561H11.3206L11.1394 6H12.777ZM12.0035 17C11.7247 17 11.4878 16.9042 11.2927 16.7125C11.0976 16.5158 11 16.2788 11 16.0014C11 15.7139 11.0976 15.4693 11.2927 15.2675C11.4878 15.0658 11.7247 14.9649 12.0035 14.9649C12.2729 14.9649 12.5052 15.0658 12.7003 15.2675C12.9001 15.4693 13 15.7139 13 16.0014C13 16.2788 12.9001 16.5158 12.7003 16.7125C12.5052 16.9042 12.2729 17 12.0035 17Z" fill="black"/>
<path fill-rule="evenodd" clip-rule="evenodd" d="M22.3923 19L12 1L1.60769 19H22.3923ZM12.866 0.5C12.4811 -0.166666 11.5189 -0.166667 11.134 0.5L0.741668 18.5C0.356768 19.1667 0.837892 20 1.60769 20H22.3923C23.1621 20 23.6432 19.1667 23.2583 18.5L12.866 0.5Z" fill="black"/>
</svg>
